<svg width="97" height="92" viewBox="0 0 97 92" fill="none" xmlns="http://www.w3.org/2000/svg">
<path d="M42.435 1.35412C29.7462 2.06902 19.3323 7.26379 11.2249 16.9258C3.19552 26.4948 -0.0348909 37.0079 1.57553 48.4373C3.18477 59.8583 9.25365 69.9618 19.7225 78.7462C24.653 82.8835 30.0354 85.9453 35.8681 87.9273C41.7875 89.9832 47.8608 90.8571 54.0844 90.548C60.398 90.3134 66.339 88.8882 71.9027 86.271C77.465 83.6544 82.0851 80.1612 85.754 75.7887C93.9214 66.0552 97.2705 55.4974 95.7502 44.1406C94.302 32.7069 88.3118 22.5964 77.8422 13.8114C67.0948 4.79328 55.2864 0.629034 42.435 1.35412ZM42.435 1.35412L42.4631 1.85333L42.435 1.35412ZM79.5525 34.3528L79.5524 34.3528L79.5507 34.361C77.6796 43.1884 72.809 52.3166 64.8969 61.7459C56.2563 72.0433 48.5671 78.5011 41.8317 81.2074C38.4737 82.5567 35.3065 82.9925 32.3198 82.541C29.334 82.0896 26.4954 80.7463 23.8012 78.4856C18.2872 73.8589 16.3451 67.2951 18.0685 58.6697C19.8689 49.9301 24.738 40.8034 32.7214 31.2891C41.9361 20.3074 49.7978 13.6485 56.3085 11.1973L56.312 11.196C59.5928 9.93253 62.7375 9.58461 65.7566 10.1315C68.777 10.6786 71.7032 12.1271 74.5361 14.5042C79.8582 18.97 81.5769 25.5351 79.5525 34.3528Z" stroke="#2C9C8D" stroke-opacity="0.5"/>
</svg>
