<svg width="191" height="49" viewBox="0 0 191 49" fill="none" xmlns="http://www.w3.org/2000/svg">
<path d="M29.7624 26.8019C29.8216 26.8019 29.8512 26.8884 29.8512 27.0613C29.8512 27.2342 29.8216 27.3207 29.7624 27.3207H21.8554C21.2039 27.3207 19.9897 26.1391 18.2128 23.7759C16.4359 21.3839 14.2889 18.0553 11.7717 13.79C11.5348 13.8189 11.1942 13.8333 10.75 13.8333C9.59504 13.8333 8.78065 13.8189 8.30682 13.79V23.8191C8.30682 24.7125 8.38085 25.361 8.52892 25.7644C8.677 26.1679 8.95833 26.4417 9.37293 26.5858C9.81715 26.7299 10.5131 26.8019 11.4607 26.8019C11.52 26.8019 11.5496 26.8884 11.5496 27.0613C11.5496 27.2342 11.52 27.3207 11.4607 27.3207C10.4835 27.3207 9.7135 27.3063 9.15083 27.2775L5.77479 27.2342L2.53202 27.2775C1.93974 27.3063 1.14015 27.3207 0.133264 27.3207C0.0444215 27.3207 0 27.2342 0 27.0613C0 26.8884 0.0444215 26.8019 0.133264 26.8019C1.08092 26.8019 1.76205 26.7299 2.17665 26.5858C2.62087 26.4417 2.91701 26.1679 3.06508 25.7644C3.24277 25.3322 3.33161 24.6837 3.33161 23.8191V3.80415C3.33161 2.93957 3.25758 2.30554 3.1095 1.90207C2.96143 1.4986 2.66529 1.22482 2.22107 1.08072C1.77686 0.907807 1.09573 0.82135 0.177686 0.82135C0.118457 0.82135 0.088843 0.734892 0.088843 0.561977C0.088843 0.389061 0.118457 0.302604 0.177686 0.302604L2.53202 0.345832C3.89428 0.40347 4.97521 0.432289 5.77479 0.432289C6.63361 0.432289 7.58127 0.389061 8.61777 0.302604C8.94353 0.273783 9.35813 0.244963 9.86157 0.216144C10.3946 0.187326 11.0165 0.172916 11.7273 0.172916C14.4518 0.172916 16.5544 0.662844 18.0351 1.6427C19.5455 2.59374 20.3006 3.93383 20.3006 5.66299C20.3006 6.98868 19.886 8.25673 19.0568 9.46714C18.2276 10.6775 17.1467 11.6574 15.814 12.4067C18.1832 16.0379 20.1674 18.8766 21.7665 20.9228C23.3953 22.969 24.8316 24.4676 26.0754 25.4186C27.3488 26.3408 28.5778 26.8019 29.7624 26.8019ZM8.30682 12.5364C9.01756 12.6517 9.87638 12.7093 10.8833 12.7093C11.9494 12.7093 12.7934 12.5508 13.4153 12.2338C14.0372 11.9168 14.4814 11.3692 14.7479 10.5911C15.0441 9.81297 15.1921 8.71784 15.1921 7.30569C15.1921 4.94251 14.8368 3.31422 14.126 2.42082C13.4153 1.52742 12.3936 1.08072 11.0609 1.08072C10.0541 1.08072 9.34332 1.29687 8.92872 1.72916C8.51412 2.16145 8.30682 2.88193 8.30682 3.8906V12.5364Z" fill="white"/>
<path d="M39.4126 23.8191C39.4126 24.7125 39.4867 25.361 39.6347 25.7644C39.7828 26.1679 40.0641 26.4417 40.4787 26.5858C40.9229 26.7299 41.6189 26.8019 42.5665 26.8019C42.6554 26.8019 42.6998 26.8884 42.6998 27.0613C42.6998 27.2342 42.6554 27.3207 42.5665 27.3207C41.5893 27.3207 40.8193 27.3063 40.2566 27.2775L36.8806 27.2342L33.5934 27.2775C33.0011 27.3063 32.2015 27.3207 31.1946 27.3207C31.1354 27.3207 31.1058 27.2342 31.1058 27.0613C31.1058 26.8884 31.1354 26.8019 31.1946 26.8019C32.1423 26.8019 32.8382 26.7299 33.2824 26.5858C33.7267 26.4417 34.0228 26.1679 34.1709 25.7644C34.3486 25.3322 34.4374 24.6837 34.4374 23.8191V3.80415C34.4374 2.93957 34.3486 2.30554 34.1709 1.90207C34.0228 1.4986 33.7267 1.22482 33.2824 1.08072C32.8382 0.907807 32.1423 0.82135 31.1946 0.82135C31.1354 0.82135 31.1058 0.734892 31.1058 0.561977C31.1058 0.389061 31.1354 0.302604 31.1946 0.302604L33.5934 0.345832C34.9557 0.40347 36.0514 0.432289 36.8806 0.432289C37.7986 0.432289 38.9388 0.40347 40.301 0.345832L42.5665 0.302604C42.6554 0.302604 42.6998 0.389061 42.6998 0.561977C42.6998 0.734892 42.6554 0.82135 42.5665 0.82135C41.6485 0.82135 40.9674 0.907807 40.5232 1.08072C40.0789 1.25364 39.7828 1.55624 39.6347 1.98853C39.4867 2.392 39.4126 3.02603 39.4126 3.8906V23.8191Z" fill="white"/>
<path d="M58.9935 27.4936C58.0458 27.4936 56.9205 27.4504 55.6174 27.3639C55.1436 27.3351 54.5513 27.3063 53.8406 27.2775C53.1594 27.2486 52.3895 27.2342 51.5307 27.2342L48.2435 27.2775C47.6512 27.3063 46.8516 27.3207 45.8447 27.3207C45.7855 27.3207 45.7559 27.2342 45.7559 27.0613C45.7559 26.8884 45.7855 26.8019 45.8447 26.8019C46.7924 26.8019 47.4883 26.7299 47.9325 26.5858C48.3767 26.4417 48.6729 26.1679 48.8209 25.7644C48.9986 25.3322 49.0875 24.6837 49.0875 23.8191V3.80415C49.0875 2.93957 48.9986 2.30554 48.8209 1.90207C48.6729 1.4986 48.3767 1.22482 47.9325 1.08072C47.5179 0.907807 46.8516 0.82135 45.9335 0.82135C45.8447 0.82135 45.8003 0.734892 45.8003 0.561977C45.8003 0.389061 45.8447 0.302604 45.9335 0.302604L48.2879 0.345832C49.6501 0.40347 50.7311 0.432289 51.5307 0.432289C52.7448 0.432289 53.9886 0.389061 55.2621 0.302604C56.802 0.244964 57.8385 0.216144 58.3716 0.216144C61.3626 0.216144 64.0131 0.792531 66.323 1.9453C68.6625 3.09807 70.469 4.66873 71.7424 6.65726C73.0158 8.64579 73.6526 10.8793 73.6526 13.3577C73.6526 16.1532 72.9862 18.6317 71.6536 20.7931C70.3506 22.9257 68.5737 24.5829 66.323 25.7644C64.1019 26.9172 61.6588 27.4936 58.9935 27.4936ZM58.5492 26.4993C60.4446 26.4993 62.1178 26.0382 63.5689 25.116C65.02 24.165 66.1453 22.7672 66.9449 20.9228C67.7741 19.0784 68.1887 16.8737 68.1887 14.3088C68.1887 11.8591 67.8037 9.64005 67.0338 7.65152C66.2638 5.63417 65.1681 4.04911 63.7466 2.89634C62.3251 1.74357 60.6815 1.16718 58.8158 1.16718C56.9797 1.16718 55.7211 1.3401 55.04 1.68593C54.3588 2.03176 54.0183 2.76665 54.0183 3.8906V23.3436C54.0183 24.4964 54.3292 25.3177 54.9511 25.8077C55.573 26.2688 56.7724 26.4993 58.5492 26.4993Z" fill="white"/>
<path d="M97.8657 20.4473C97.8657 20.3896 97.925 20.3608 98.0434 20.3608C98.1323 20.3608 98.2063 20.3896 98.2655 20.4473C98.3544 20.4761 98.3988 20.5049 98.3988 20.5337C98.1026 22.7816 97.9546 24.8278 97.9546 26.6723C97.9546 26.9028 97.9101 27.0757 97.8213 27.191C97.7325 27.2775 97.5548 27.3207 97.2883 27.3207H77.654C77.5651 27.3207 77.5207 27.2342 77.5207 27.0613C77.5207 26.8884 77.5651 26.8019 77.654 26.8019C78.6016 26.8019 79.2827 26.7299 79.6973 26.5858C80.1416 26.4417 80.4377 26.1679 80.5858 25.7644C80.7338 25.3322 80.8079 24.6837 80.8079 23.8191V3.80415C80.8079 2.93957 80.7338 2.30554 80.5858 1.90207C80.4377 1.4986 80.1416 1.22482 79.6973 1.08072C79.2531 0.907807 78.572 0.82135 77.654 0.82135C77.5651 0.82135 77.5207 0.734892 77.5207 0.561977C77.5207 0.389061 77.5651 0.302604 77.654 0.302604H96.4887C96.7848 0.302604 96.9329 0.43229 96.9329 0.691662L97.0217 6.44111C97.0217 6.49875 96.9329 6.54198 96.7552 6.5708C96.6071 6.59962 96.5183 6.5708 96.4887 6.48434C96.0148 4.81282 95.2152 3.57359 94.0899 2.76665C92.9646 1.95971 91.4838 1.55624 89.6478 1.55624H88.3151C87.4267 1.55624 86.7752 1.74357 86.3606 2.11822C85.946 2.49287 85.7387 3.06925 85.7387 3.84737V12.6661H89.4257C91.1433 12.6661 92.4611 12.3779 93.3792 11.8015C94.2972 11.2251 94.7562 10.4182 94.7562 9.38068C94.7562 9.29422 94.8303 9.25099 94.9783 9.25099C95.156 9.25099 95.2449 9.29422 95.2449 9.38068L95.2004 13.2713L95.2449 15.3463C95.3041 16.3261 95.3337 17.1042 95.3337 17.6806C95.3337 17.7383 95.2449 17.7671 95.0672 17.7671C94.8895 17.7671 94.8006 17.7383 94.8006 17.6806C94.8006 16.499 94.3268 15.5768 93.3792 14.914C92.4611 14.2223 91.1285 13.8765 89.3812 13.8765H85.7387V23.6462C85.7387 24.482 85.9016 25.1016 86.2273 25.5051C86.5531 25.9085 87.0713 26.1103 87.7821 26.1103H89.248C91.5579 26.1103 93.4088 25.6492 94.8006 24.727C96.1925 23.8047 97.2142 22.3782 97.8657 20.4473Z" fill="white"/>
<path d="M132.193 26.8019C132.341 26.8019 132.415 26.8884 132.415 27.0613C132.415 27.2342 132.341 27.3207 132.193 27.3207C131.6 27.3207 130.682 27.2919 129.439 27.2342C128.136 27.1766 127.203 27.1478 126.64 27.1478C125.9 27.1478 124.996 27.1766 123.93 27.2342C122.923 27.2919 122.124 27.3207 121.532 27.3207C121.413 27.3207 121.354 27.2342 121.354 27.0613C121.354 26.8884 121.413 26.8019 121.532 26.8019C122.302 26.8019 122.849 26.7299 123.175 26.5858C123.531 26.4129 123.708 26.1247 123.708 25.7212C123.708 25.2313 123.412 24.4099 122.82 23.2572L118.2 14.3952H110.293L107.139 21.1822C106.754 22.0179 106.562 22.7961 106.562 23.5165C106.562 24.554 106.932 25.361 107.672 25.9374C108.442 26.5138 109.464 26.8019 110.737 26.8019C110.885 26.8019 110.959 26.8884 110.959 27.0613C110.959 27.2342 110.885 27.3207 110.737 27.3207C110.204 27.3207 109.434 27.2919 108.427 27.2342C107.302 27.1766 106.325 27.1478 105.495 27.1478C104.696 27.1478 103.733 27.1766 102.608 27.2342C101.601 27.2919 100.787 27.3207 100.165 27.3207C100.046 27.3207 99.9872 27.2342 99.9872 27.0613C99.9872 26.8884 100.046 26.8019 100.165 26.8019C100.994 26.8019 101.69 26.6434 102.253 26.3264C102.815 25.9806 103.378 25.3898 103.941 24.554C104.503 23.6895 105.17 22.4214 105.94 20.7499L115.579 0.129688C115.638 0.0432292 115.772 0 115.979 0C116.216 0 116.349 0.0432292 116.379 0.129688L127.484 21.3983C128.521 23.4445 129.379 24.8566 130.061 25.6348C130.742 26.4129 131.452 26.8019 132.193 26.8019ZM110.87 13.1848H117.578L114.024 6.35465L110.87 13.1848Z" fill="white"/>
<path d="M155.943 5.83591C155.943 4.27967 155.573 3.05485 154.833 2.16145C154.122 1.26805 153.115 0.82135 151.812 0.82135C151.753 0.82135 151.723 0.734892 151.723 0.561977C151.723 0.389061 151.753 0.302604 151.812 0.302604L153.944 0.345832C155.07 0.40347 155.973 0.432289 156.654 0.432289C157.217 0.432289 158.031 0.40347 159.097 0.345832L161.141 0.302604C161.2 0.302604 161.23 0.389061 161.23 0.561977C161.23 0.734892 161.2 0.82135 161.141 0.82135C159.986 0.82135 159.082 1.26805 158.431 2.16145C157.779 3.05485 157.454 4.27967 157.454 5.83591V17.8536C157.454 19.8709 156.995 21.6433 156.077 23.1707C155.159 24.6981 153.856 25.8797 152.168 26.7155C150.509 27.5224 148.584 27.9259 146.393 27.9259C144.201 27.9259 142.262 27.5224 140.574 26.7155C138.885 25.9085 137.553 24.7414 136.576 23.2139C135.628 21.6577 135.154 19.8421 135.154 17.7671V3.80415C135.154 2.93957 135.065 2.30554 134.888 1.90207C134.74 1.4986 134.443 1.22482 133.999 1.08072C133.585 0.907807 132.918 0.82135 132 0.82135C131.911 0.82135 131.867 0.734892 131.867 0.561977C131.867 0.389061 131.911 0.302604 132 0.302604L134.355 0.345832C135.717 0.40347 136.798 0.432289 137.597 0.432289C138.486 0.432289 139.611 0.40347 140.973 0.345832L143.239 0.302604C143.328 0.302604 143.372 0.389061 143.372 0.561977C143.372 0.734892 143.328 0.82135 143.239 0.82135C142.321 0.82135 141.64 0.907807 141.195 1.08072C140.781 1.25364 140.485 1.55624 140.307 1.98853C140.159 2.392 140.085 3.02603 140.085 3.8906V16.2541C140.085 19.6836 140.781 22.2197 142.173 23.8624C143.565 25.5051 145.534 26.3264 148.081 26.3264C150.539 26.3264 152.464 25.6059 153.856 24.165C155.247 22.6952 155.943 20.6058 155.943 17.8968V5.83591Z" fill="white"/>
<path d="M190.42 26.8019C190.509 26.8019 190.553 26.8884 190.553 27.0613C190.553 27.2342 190.509 27.3207 190.42 27.3207C189.561 27.3207 188.895 27.3063 188.421 27.2775L185.756 27.2342L182.113 27.2775C181.55 27.3063 180.766 27.3207 179.759 27.3207C179.67 27.3207 179.626 27.2342 179.626 27.0613C179.626 26.8884 179.67 26.8019 179.759 26.8019C180.736 26.8019 181.225 26.557 181.225 26.067C181.225 25.8077 181.091 25.4907 180.825 25.116L174.739 15.9515L170.919 21.2686C169.764 22.8537 169.186 24.1362 169.186 25.116C169.186 26.24 169.956 26.8019 171.496 26.8019C171.556 26.8019 171.585 26.8884 171.585 27.0613C171.585 27.2342 171.556 27.3207 171.496 27.3207C170.519 27.3207 169.779 27.3063 169.275 27.2775L165.988 27.2342L163.9 27.2775C163.515 27.3063 162.893 27.3207 162.035 27.3207C161.946 27.3207 161.901 27.2342 161.901 27.0613C161.901 26.8884 161.946 26.8019 162.035 26.8019C162.953 26.8019 164.078 26.3264 165.411 25.3754C166.743 24.4244 168.135 22.969 169.586 21.0093L174.117 15.0437L167.01 4.27966C166.21 3.04043 165.44 2.16145 164.7 1.6427C163.96 1.09513 163.175 0.82135 162.346 0.82135C162.257 0.82135 162.212 0.734892 162.212 0.561977C162.212 0.389061 162.257 0.302604 162.346 0.302604L164.256 0.345832C165.085 0.40347 165.707 0.432289 166.121 0.432289C167.158 0.432289 168.446 0.40347 169.986 0.345832L172.518 0.302604C172.577 0.302604 172.607 0.389061 172.607 0.561977C172.607 0.734892 172.577 0.82135 172.518 0.82135C171.511 0.82135 171.008 1.06631 171.008 1.55624C171.008 1.7868 171.141 2.11822 171.408 2.55051L177.271 11.326L180.825 6.39788C181.98 4.784 182.557 3.48713 182.557 2.50728C182.557 1.38333 181.787 0.82135 180.247 0.82135C180.188 0.82135 180.159 0.734892 180.159 0.561977C180.159 0.389061 180.188 0.302604 180.247 0.302604L182.469 0.345832C183.653 0.40347 184.749 0.432289 185.756 0.432289C186.378 0.432289 187.074 0.40347 187.844 0.345832L189.709 0.302604C189.798 0.302604 189.842 0.389061 189.842 0.561977C189.842 0.734892 189.798 0.82135 189.709 0.82135C188.762 0.82135 187.621 1.31128 186.289 2.29113C184.986 3.24217 183.594 4.69755 182.113 6.65726L177.893 12.277L185.489 23.7327C186.23 24.799 186.985 25.5771 187.755 26.067C188.525 26.557 189.413 26.8019 190.42 26.8019Z" fill="white"/>
<path d="M112.494 46.4711C112.494 46.4495 112.516 46.4387 112.561 46.4387C112.594 46.4387 112.622 46.4495 112.644 46.4711C112.677 46.4819 112.694 46.4927 112.694 46.5035C112.583 47.2817 112.527 48.0111 112.527 48.692C112.527 48.7785 112.511 48.8433 112.477 48.8865C112.444 48.9189 112.377 48.9352 112.277 48.9352H105.181C105.148 48.9352 105.131 48.9027 105.131 48.8379C105.131 48.7731 105.148 48.7406 105.181 48.7406C105.581 48.7406 105.87 48.7136 106.047 48.6596C106.225 48.6055 106.347 48.5029 106.414 48.3516C106.48 48.1895 106.514 47.9463 106.514 47.6221V40.1165C106.514 39.7922 106.48 39.5545 106.414 39.4032C106.347 39.2519 106.219 39.1492 106.031 39.0952C105.853 39.0303 105.57 38.9979 105.181 38.9979C105.148 38.9979 105.131 38.9655 105.131 38.9006C105.131 38.8358 105.148 38.8034 105.181 38.8034H111.978C112.089 38.8034 112.144 38.852 112.144 38.9493L112.177 40.9918C112.177 41.0243 112.144 41.0459 112.078 41.0567C112.022 41.0567 111.989 41.0405 111.978 41.008C111.9 40.4137 111.683 39.9651 111.328 39.6625C110.973 39.3491 110.506 39.1924 109.929 39.1924H109.079C108.59 39.1924 108.263 39.2627 108.096 39.4032C107.93 39.5329 107.846 39.7922 107.846 40.1813V43.4721H109.679C110.245 43.4721 110.662 43.3802 110.928 43.1965C111.195 43.002 111.328 42.7048 111.328 42.3049C111.328 42.2833 111.356 42.2725 111.411 42.2725C111.478 42.2725 111.511 42.2833 111.511 42.3049L111.494 43.6666L111.511 44.3961C111.533 44.742 111.544 45.0121 111.544 45.2067C111.544 45.2283 111.511 45.2391 111.445 45.2391C111.378 45.2391 111.345 45.2283 111.345 45.2067C111.345 44.742 111.206 44.4015 110.928 44.1854C110.662 43.9584 110.228 43.8449 109.629 43.8449H107.846V47.5572C107.846 47.9463 107.919 48.2111 108.063 48.3516C108.218 48.4921 108.524 48.5623 108.979 48.5623H110.062C110.695 48.5623 111.217 48.384 111.628 48.0274C112.05 47.6599 112.339 47.1412 112.494 46.4711Z" fill="white"/>
<path d="M116.725 47.5572C116.725 47.8598 116.753 48.0814 116.808 48.2219C116.875 48.3516 116.992 48.4434 117.158 48.4975C117.325 48.5407 117.586 48.5623 117.941 48.5623H119.357C120.057 48.5623 120.634 48.3624 121.089 47.9625C121.556 47.5518 121.867 47.0007 122.022 46.309C122.022 46.2766 122.05 46.2658 122.106 46.2766C122.172 46.2766 122.205 46.2928 122.205 46.3252C122.106 47.2762 122.056 48.0652 122.056 48.692C122.056 48.7785 122.033 48.8433 121.989 48.8865C121.956 48.9189 121.895 48.9352 121.806 48.9352H114.043C114.021 48.9352 114.01 48.9027 114.01 48.8379C114.01 48.7731 114.021 48.7406 114.043 48.7406C114.443 48.7406 114.732 48.7136 114.909 48.6596C115.098 48.6055 115.226 48.5029 115.292 48.3516C115.359 48.1895 115.392 47.9463 115.392 47.6221V40.1165C115.392 39.7922 115.359 39.5545 115.292 39.4032C115.226 39.2519 115.098 39.1492 114.909 39.0952C114.732 39.0303 114.443 38.9979 114.043 38.9979C114.021 38.9979 114.01 38.9655 114.01 38.9006C114.01 38.8358 114.021 38.8034 114.043 38.8034L114.876 38.8196C115.365 38.8412 115.759 38.852 116.059 38.852C116.359 38.852 116.753 38.8412 117.241 38.8196L118.074 38.8034C118.097 38.8034 118.108 38.8358 118.108 38.9006C118.108 38.9655 118.097 38.9979 118.074 38.9979C117.686 38.9979 117.397 39.0303 117.208 39.0952C117.019 39.1492 116.892 39.2573 116.825 39.4194C116.758 39.5707 116.725 39.8085 116.725 40.1327V47.5572Z" fill="white"/>
<path d="M125.905 47.6221C125.905 47.9463 125.939 48.1895 126.005 48.3516C126.072 48.5029 126.194 48.6055 126.372 48.6596C126.561 48.7136 126.855 48.7406 127.255 48.7406C127.277 48.7406 127.288 48.7731 127.288 48.8379C127.288 48.9027 127.277 48.9352 127.255 48.9352C126.899 48.9352 126.622 48.9298 126.422 48.9189L125.222 48.9027L124.056 48.9189C123.845 48.9298 123.557 48.9352 123.19 48.9352C123.168 48.9352 123.157 48.9027 123.157 48.8379C123.157 48.7731 123.168 48.7406 123.19 48.7406C123.59 48.7406 123.884 48.7136 124.073 48.6596C124.262 48.6055 124.39 48.5029 124.456 48.3516C124.523 48.1895 124.556 47.9463 124.556 47.6221V40.1165C124.556 39.7922 124.523 39.5545 124.456 39.4032C124.39 39.2519 124.262 39.1492 124.073 39.0952C123.884 39.0303 123.59 38.9979 123.19 38.9979C123.168 38.9979 123.157 38.9655 123.157 38.9006C123.157 38.8358 123.168 38.8034 123.19 38.8034L124.056 38.8196C124.545 38.8412 124.934 38.852 125.222 38.852C125.544 38.852 125.95 38.8412 126.438 38.8196L127.255 38.8034C127.277 38.8034 127.288 38.8358 127.288 38.9006C127.288 38.9655 127.277 38.9979 127.255 38.9979C126.866 38.9979 126.577 39.0303 126.388 39.0952C126.2 39.16 126.072 39.2735 126.005 39.4356C125.939 39.5869 125.905 39.8247 125.905 40.1489V47.6221Z" fill="white"/>
<path d="M135.317 39.2086C135.35 39.1546 135.361 39.1222 135.35 39.1114C135.35 39.0898 135.311 39.079 135.233 39.079C133.49 39.079 132.263 39.1168 131.552 39.1924C130.841 39.2573 130.319 39.414 129.986 39.6625C129.664 39.9111 129.375 40.3488 129.12 40.9756C129.098 40.9972 129.075 41.008 129.053 41.008C129.02 41.008 128.986 41.0026 128.953 40.9918C128.92 40.9702 128.909 40.954 128.92 40.9432L129.586 38.3171C129.586 38.3062 129.608 38.3008 129.653 38.3008C129.764 38.3008 129.808 38.3171 129.786 38.3495C129.775 38.3819 129.769 38.4251 129.769 38.4792C129.769 38.6088 129.831 38.6953 129.953 38.7385C130.086 38.7818 130.347 38.8034 130.736 38.8034H136.816C136.871 38.8034 136.91 38.8304 136.932 38.8844C136.966 38.9385 136.966 38.9817 136.932 39.0141L130.669 48.4975C130.625 48.5515 130.608 48.5893 130.619 48.6109C130.63 48.6217 130.669 48.6272 130.736 48.6272H134.7C135.4 48.6272 135.966 48.4596 136.399 48.1246C136.832 47.7788 137.11 47.2871 137.232 46.6494C137.243 46.6278 137.277 46.617 137.332 46.617C137.388 46.617 137.415 46.6278 137.415 46.6494L137.182 48.8055C137.182 48.8379 137.166 48.8757 137.132 48.9189C137.11 48.9514 137.077 48.9676 137.032 48.9676C135.378 48.946 132.718 48.9352 129.053 48.9352C129.009 48.9352 128.975 48.9135 128.953 48.8703C128.931 48.8163 128.937 48.7676 128.97 48.7244L135.317 39.2086Z" fill="white"/>
<path d="M149.72 48.7406C149.764 48.7406 149.787 48.7731 149.787 48.8379C149.787 48.9027 149.764 48.9352 149.72 48.9352C149.509 48.9352 149.17 48.9243 148.704 48.9027C148.26 48.8811 147.932 48.8703 147.721 48.8703C147.466 48.8703 147.149 48.8811 146.772 48.9027C146.394 48.9243 146.111 48.9352 145.922 48.9352C145.878 48.9352 145.855 48.9027 145.855 48.8379C145.855 48.7731 145.878 48.7406 145.922 48.7406C146.3 48.7406 146.572 48.7082 146.738 48.6434C146.905 48.5677 146.988 48.438 146.988 48.2543C146.988 48.0706 146.905 47.8166 146.738 47.4924L144.873 43.7315H141.807L140.442 46.7953C140.286 47.152 140.208 47.4492 140.208 47.6869C140.208 48.3894 140.747 48.7406 141.824 48.7406C141.88 48.7406 141.907 48.7731 141.907 48.8379C141.907 48.9027 141.88 48.9352 141.824 48.9352C141.624 48.9352 141.335 48.9243 140.958 48.9027C140.536 48.8811 140.169 48.8703 139.858 48.8703C139.57 48.8703 139.225 48.8811 138.826 48.9027C138.47 48.9243 138.182 48.9352 137.959 48.9352C137.915 48.9352 137.893 48.9027 137.893 48.8379C137.893 48.7731 137.915 48.7406 137.959 48.7406C138.27 48.7406 138.531 48.6812 138.742 48.5623C138.964 48.4434 139.176 48.2381 139.375 47.9463C139.575 47.6545 139.803 47.2222 140.058 46.6494L143.607 38.6899C143.618 38.6575 143.657 38.6413 143.723 38.6413C143.79 38.6305 143.829 38.6467 143.84 38.6899L147.854 46.7143C148.232 47.5032 148.554 48.0382 148.821 48.3191C149.087 48.6001 149.387 48.7406 149.72 48.7406ZM141.957 43.3586H144.689L143.257 40.4407L141.957 43.3586Z" fill="white"/>
<path d="M155.418 43.2289C156.306 43.3046 157.023 43.5964 157.567 44.1043C158.111 44.6123 158.383 45.2337 158.383 45.9686C158.383 46.5414 158.228 47.0601 157.917 47.5248C157.617 47.9787 157.2 48.3408 156.667 48.6109C156.145 48.8703 155.557 49 154.902 49C154.546 49 154.158 48.9838 153.736 48.9514C153.58 48.9406 153.397 48.9298 153.186 48.9189C152.975 48.9081 152.736 48.9027 152.47 48.9027L151.303 48.9189C151.092 48.9298 150.809 48.9352 150.454 48.9352C150.421 48.9352 150.404 48.9027 150.404 48.8379C150.404 48.7731 150.421 48.7406 150.454 48.7406C150.843 48.7406 151.126 48.7136 151.303 48.6596C151.492 48.5947 151.626 48.4867 151.703 48.3354C151.781 48.1841 151.82 47.9463 151.82 47.6221V40.1165C151.82 39.7922 151.781 39.5545 151.703 39.4032C151.637 39.2519 151.509 39.1492 151.32 39.0952C151.142 39.0303 150.859 38.9979 150.471 38.9979C150.448 38.9979 150.437 38.9655 150.437 38.9006C150.437 38.8358 150.448 38.8034 150.471 38.8034L151.303 38.8196C151.792 38.8412 152.181 38.852 152.47 38.852C152.769 38.852 153.097 38.8358 153.452 38.8034C153.575 38.7926 153.719 38.7818 153.885 38.771C154.063 38.7601 154.252 38.7547 154.452 38.7547C155.407 38.7547 156.134 38.9493 156.634 39.3383C157.134 39.7166 157.384 40.2299 157.384 40.8784C157.384 41.3971 157.212 41.8672 156.867 42.2887C156.523 42.6994 156.04 43.0128 155.418 43.2289ZM154.135 39.0303C153.869 39.0303 153.663 39.0573 153.519 39.1114C153.386 39.1654 153.286 39.2735 153.219 39.4356C153.164 39.5869 153.136 39.8247 153.136 40.1489V43.2289L153.869 43.2451C154.602 43.2451 155.151 43.0398 155.518 42.6291C155.884 42.2185 156.068 41.6781 156.068 41.008C156.068 40.392 155.907 39.9111 155.585 39.5653C155.274 39.2086 154.791 39.0303 154.135 39.0303ZM154.635 48.6758C155.424 48.6758 156.007 48.4758 156.384 48.076C156.773 47.6761 156.967 47.1033 156.967 46.3576C156.967 45.5363 156.734 44.877 156.268 44.3799C155.801 43.8828 155.14 43.6288 154.285 43.618C153.985 43.6072 153.602 43.618 153.136 43.6504V47.6221C153.136 47.8923 153.175 48.103 153.252 48.2543C153.33 48.3948 153.475 48.5029 153.686 48.5785C153.897 48.6434 154.213 48.6758 154.635 48.6758Z" fill="white"/>
<path d="M167.267 46.4711C167.267 46.4495 167.289 46.4387 167.334 46.4387C167.367 46.4387 167.395 46.4495 167.417 46.4711C167.45 46.4819 167.467 46.4927 167.467 46.5035C167.356 47.2817 167.3 48.0111 167.3 48.692C167.3 48.7785 167.284 48.8433 167.25 48.8865C167.217 48.9189 167.15 48.9352 167.051 48.9352H159.954C159.921 48.9352 159.904 48.9027 159.904 48.8379C159.904 48.7731 159.921 48.7406 159.954 48.7406C160.354 48.7406 160.643 48.7136 160.82 48.6596C160.998 48.6055 161.12 48.5029 161.187 48.3516C161.254 48.1895 161.287 47.9463 161.287 47.6221V40.1165C161.287 39.7922 161.254 39.5545 161.187 39.4032C161.12 39.2519 160.993 39.1492 160.804 39.0952C160.626 39.0303 160.343 38.9979 159.954 38.9979C159.921 38.9979 159.904 38.9655 159.904 38.9006C159.904 38.8358 159.921 38.8034 159.954 38.8034H166.751C166.862 38.8034 166.917 38.852 166.917 38.9493L166.951 40.9918C166.951 41.0243 166.917 41.0459 166.851 41.0567C166.795 41.0567 166.762 41.0405 166.751 41.008C166.673 40.4137 166.456 39.9651 166.101 39.6625C165.746 39.3491 165.279 39.1924 164.702 39.1924H163.852C163.364 39.1924 163.036 39.2627 162.869 39.4032C162.703 39.5329 162.619 39.7922 162.619 40.1813V43.4721H164.452C165.018 43.4721 165.435 43.3802 165.701 43.1965C165.968 43.002 166.101 42.7048 166.101 42.3049C166.101 42.2833 166.129 42.2725 166.184 42.2725C166.251 42.2725 166.284 42.2833 166.284 42.3049L166.268 43.6666L166.284 44.3961C166.306 44.742 166.318 45.0121 166.318 45.2067C166.318 45.2283 166.284 45.2391 166.218 45.2391C166.151 45.2391 166.118 45.2283 166.118 45.2067C166.118 44.742 165.979 44.4015 165.701 44.1854C165.435 43.9584 165.002 43.8449 164.402 43.8449H162.619V47.5572C162.619 47.9463 162.692 48.2111 162.836 48.3516C162.992 48.4921 163.297 48.5623 163.752 48.5623H164.835C165.468 48.5623 165.99 48.384 166.401 48.0274C166.823 47.6599 167.112 47.1412 167.267 46.4711Z" fill="white"/>
<path d="M171.581 39.1276C170.893 39.1276 170.354 39.3167 169.966 39.695C169.577 40.0624 169.288 40.6568 169.099 41.4782C169.088 41.4998 169.049 41.5106 168.983 41.5106C168.927 41.5106 168.899 41.4998 168.899 41.4782C168.944 41.1648 168.994 40.6676 169.049 39.9868C169.105 39.3059 169.133 38.7926 169.133 38.4467C169.133 38.3927 169.166 38.3657 169.233 38.3657C169.299 38.3657 169.333 38.3927 169.333 38.4467C169.333 38.6845 169.638 38.8034 170.249 38.8034C171.193 38.8358 172.309 38.852 173.597 38.852C174.252 38.852 174.946 38.8412 175.679 38.8196L176.812 38.8034C177.223 38.8034 177.523 38.7764 177.712 38.7223C177.9 38.6683 178.023 38.5602 178.078 38.3981C178.089 38.3549 178.122 38.3333 178.178 38.3333C178.245 38.3333 178.278 38.3549 178.278 38.3981C178.245 38.7007 178.206 39.187 178.161 39.8571C178.128 40.5271 178.111 41.0675 178.111 41.4782C178.111 41.4998 178.078 41.5106 178.011 41.5106C177.956 41.5106 177.928 41.4998 177.928 41.4782C177.85 40.646 177.628 40.0462 177.262 39.6788C176.895 39.3113 176.351 39.1276 175.629 39.1276C175.218 39.1276 174.924 39.1546 174.746 39.2086C174.569 39.2519 174.447 39.3437 174.38 39.4842C174.313 39.6139 174.28 39.8355 174.28 40.1489V47.6221C174.28 47.9571 174.313 48.2003 174.38 48.3516C174.458 48.5029 174.602 48.6055 174.813 48.6596C175.024 48.7136 175.363 48.7406 175.829 48.7406C175.851 48.7406 175.863 48.7731 175.863 48.8379C175.863 48.9027 175.851 48.9352 175.829 48.9352C175.441 48.9352 175.135 48.9298 174.913 48.9189L173.597 48.9027L172.314 48.9189C172.092 48.9298 171.781 48.9352 171.382 48.9352C171.348 48.9352 171.332 48.9027 171.332 48.8379C171.332 48.7731 171.348 48.7406 171.382 48.7406C171.837 48.7406 172.17 48.7136 172.381 48.6596C172.592 48.6055 172.736 48.5029 172.814 48.3516C172.892 48.1895 172.931 47.9463 172.931 47.6221V40.1165C172.931 39.8139 172.897 39.5977 172.831 39.468C172.764 39.3275 172.642 39.2357 172.464 39.1924C172.287 39.1492 171.992 39.1276 171.581 39.1276Z" fill="white"/>
<path d="M190.95 48.7406C190.983 48.7406 191 48.7731 191 48.8379C191 48.9027 190.983 48.9352 190.95 48.9352C190.595 48.9352 190.311 48.9298 190.1 48.9189L188.901 48.9027L187.585 48.9189C187.396 48.9298 187.135 48.9352 186.802 48.9352C186.769 48.9352 186.752 48.9027 186.752 48.8379C186.752 48.7731 186.769 48.7406 186.802 48.7406C187.224 48.7406 187.535 48.7136 187.735 48.6596C187.935 48.6055 188.068 48.5029 188.135 48.3516C188.201 48.1895 188.235 47.9463 188.235 47.6221V43.8449H182.171V47.6221C182.171 47.9463 182.205 48.1895 182.271 48.3516C182.338 48.5029 182.471 48.6055 182.671 48.6596C182.871 48.7136 183.182 48.7406 183.604 48.7406C183.626 48.7406 183.637 48.7731 183.637 48.8379C183.637 48.9027 183.626 48.9352 183.604 48.9352C183.248 48.9352 182.965 48.9298 182.754 48.9189L181.472 48.9027L180.289 48.9189C180.078 48.9298 179.789 48.9352 179.423 48.9352C179.4 48.9352 179.389 48.9027 179.389 48.8379C179.389 48.7731 179.4 48.7406 179.423 48.7406C179.834 48.7406 180.133 48.7136 180.322 48.6596C180.522 48.6055 180.655 48.5029 180.722 48.3516C180.8 48.1895 180.839 47.9463 180.839 47.6221V40.1165C180.839 39.7922 180.805 39.5545 180.739 39.4032C180.672 39.2519 180.544 39.1492 180.356 39.0952C180.167 39.0303 179.867 38.9979 179.456 38.9979C179.423 38.9979 179.406 38.9655 179.406 38.9006C179.406 38.8358 179.423 38.8034 179.456 38.8034L180.306 38.8196C180.772 38.8412 181.161 38.852 181.472 38.852C181.827 38.852 182.26 38.8412 182.771 38.8196L183.604 38.8034C183.626 38.8034 183.637 38.8358 183.637 38.9006C183.637 38.9655 183.626 38.9979 183.604 38.9979C183.193 38.9979 182.888 39.0303 182.688 39.0952C182.488 39.16 182.349 39.2735 182.271 39.4356C182.205 39.5869 182.171 39.8247 182.171 40.1489V43.4721H188.235V40.1489C188.235 39.8247 188.196 39.5869 188.118 39.4356C188.052 39.2735 187.918 39.16 187.718 39.0952C187.53 39.0303 187.224 38.9979 186.802 38.9979C186.769 38.9979 186.752 38.9655 186.752 38.9006C186.752 38.8358 186.769 38.8034 186.802 38.8034L187.585 38.8196C188.096 38.8412 188.535 38.852 188.901 38.852C189.212 38.852 189.612 38.8412 190.1 38.8196L190.95 38.8034C190.983 38.8034 191 38.8358 191 38.9006C191 38.9655 190.983 38.9979 190.95 38.9979C190.539 38.9979 190.239 39.0303 190.05 39.0952C189.862 39.1492 189.728 39.2519 189.651 39.4032C189.584 39.5545 189.551 39.7922 189.551 40.1165V47.6221C189.551 47.9463 189.584 48.1895 189.651 48.3516C189.728 48.5029 189.862 48.6055 190.05 48.6596C190.239 48.7136 190.539 48.7406 190.95 48.7406Z" fill="white"/>
</svg>
