<svg width="30" height="30" viewBox="0 0 30 30" fill="none" xmlns="http://www.w3.org/2000/svg">
<g clip-path="url(#clip0_193_299)">
<path fill-rule="evenodd" clip-rule="evenodd" d="M30 27.6043L24.248 21.8507C26.0338 19.5567 27.1079 16.6815 27.1079 13.554C27.1079 6.08062 21.0273 0 13.554 0C6.08062 0 0 6.08064 0 13.554C0 21.0273 6.08064 27.1079 13.554 27.1079C16.6815 27.1079 19.555 26.0321 21.8507 24.248L27.6043 30L30 27.6043ZM13.554 23.7194C7.94772 23.7194 3.3885 19.1602 3.3885 13.554C3.3885 7.94772 7.94772 3.3885 13.554 3.3885C19.1602 3.3885 23.7194 7.94772 23.7194 13.554C23.7194 19.1602 19.1602 23.7194 13.554 23.7194ZM15.2482 7.62411H11.8597V11.8597H7.62409V15.2482H11.8597V19.4838H15.2482V15.2482H19.4838V11.8597H15.2482V7.62409V7.62411Z" fill="white"/>
</g>
<defs>
<clipPath id="clip0_193_299">
<rect width="30" height="30" fill="white"/>
</clipPath>
</defs>
</svg>
